<svg width="240" height="200" viewBox="0 0 240 200" fill="none" xmlns="http://www.w3.org/2000/svg">
  <!-- Background gradient -->
  <defs>
    <linearGradient id="carBg" x1="0%" y1="0%" x2="100%" y2="100%">
      <stop offset="0%" style="stop-color:#EBF4FF;stop-opacity:1" />
      <stop offset="100%" style="stop-color:#DBEAFE;stop-opacity:1" />
    </linearGradient>
    <linearGradient id="carBody" x1="0%" y1="0%" x2="100%" y2="100%">
      <stop offset="0%" style="stop-color:#1E51AB;stop-opacity:1" />
      <stop offset="100%" style="stop-color:#163D82;stop-opacity:1" />
    </linearGradient>
    <linearGradient id="carGlass" x1="0%" y1="0%" x2="100%" y2="100%">
      <stop offset="0%" style="stop-color:#E1F5FE;stop-opacity:0.8" />
      <stop offset="100%" style="stop-color:#B3E5FC;stop-opacity:0.6" />
    </linearGradient>
  </defs>
  
  <!-- Background -->
  <rect width="240" height="200" fill="url(#carBg)" rx="16"/>
  
  <!-- Road/ground -->
  <path d="M0 160 L240 160 L240 200 L0 200 Z" fill="#F8FAFC"/>
  
  <!-- Car shadow -->
  <ellipse cx="120" cy="160" rx="35" ry="8" fill="#E2E8F0" opacity="0.3"/>
  
  <!-- Main car body -->
  <path d="M60 130 Q60 120 70 115 L170 115 Q180 120 180 130 L180 145 Q180 150 175 150 L65 150 Q60 150 60 145 Z" fill="url(#carBody)"/>
  
  <!-- Car roof -->
  <path d="M70 115 Q70 110 75 105 L165 105 Q170 110 170 115 L165 125 L75 125 Z" fill="url(#carBody)"/>
  
  <!-- Windshield -->
  <path d="M75 105 Q75 100 80 95 L160 95 Q165 100 165 105 L160 115 L80 115 Z" fill="url(#carGlass)"/>
  
  <!-- Side windows -->
  <rect x="85" y="100" width="25" height="20" fill="url(#carGlass)" rx="2"/>
  <rect x="130" y="100" width="25" height="20" fill="url(#carGlass)" rx="2"/>
  
  <!-- Wheels -->
  <circle cx="85" cy="145" r="12" fill="#374151"/>
  <circle cx="85" cy="145" r="8" fill="#6B7280"/>
  <circle cx="85" cy="145" r="4" fill="#9CA3AF"/>
  <circle cx="85" cy="145" r="2" fill="#D1D5DB"/>
  
  <circle cx="155" cy="145" r="12" fill="#374151"/>
  <circle cx="155" cy="145" r="8" fill="#6B7280"/>
  <circle cx="155" cy="145" r="4" fill="#9CA3AF"/>
  <circle cx="155" cy="145" r="2" fill="#D1D5DB"/>
  
  <!-- Headlights -->
  <circle cx="65" cy="125" r="6" fill="#FEF3C7"/>
  <circle cx="65" cy="125" r="4" fill="#FCD34D"/>
  <circle cx="65" cy="125" r="2" fill="#F59E0B"/>
  
  <circle cx="175" cy="125" r="6" fill="#FEF3C7"/>
  <circle cx="175" cy="125" r="4" fill="#FCD34D"/>
  <circle cx="175" cy="125" r="2" fill="#F59E0B"/>
  
  <!-- Grille -->
  <rect x="95" y="125" width="50" height="6" fill="#1F2937" rx="3"/>
  
  <!-- Door handles -->
  <rect x="110" y="120" width="8" height="2" fill="#374151" rx="1"/>
  <rect x="122" y="120" width="8" height="2" fill="#374151" rx="1"/>
  
  <!-- Insurance shield icon -->
  <g transform="translate(20, 30)">
    <circle cx="20" cy="20" r="18" fill="#1E51AB" opacity="0.1"/>
    <path d="M20 5 L30 10 L30 25 Q30 35 20 40 Q10 35 10 25 L10 10 Z" fill="#1E51AB"/>
    <path d="M16 22 L19 25 L24 18" stroke="#FFFFFF" stroke-width="2" fill="none" stroke-linecap="round" stroke-linejoin="round"/>
  </g>
  
  <!-- Speed lines -->
  <g opacity="0.4">
    <line x1="200" y1="110" x2="220" y2="110" stroke="#1E51AB" stroke-width="2" stroke-linecap="round"/>
    <line x1="205" y1="105" x2="220" y2="105" stroke="#1E51AB" stroke-width="2" stroke-linecap="round"/>
    <line x1="210" y1="100" x2="220" y2="100" stroke="#1E51AB" stroke-width="2" stroke-linecap="round"/>
  </g>
</svg>