<svg width="240" height="200" viewBox="0 0 240 200" fill="none" xmlns="http://www.w3.org/2000/svg">
  <!-- Background gradient -->
  <defs>
    <linearGradient id="healthBg" x1="0%" y1="0%" x2="100%" y2="100%">
      <stop offset="0%" style="stop-color:#FEF2F2;stop-opacity:1" />
      <stop offset="100%" style="stop-color:#FEE2E2;stop-opacity:1" />
    </linearGradient>
    <linearGradient id="heartGradient" x1="0%" y1="0%" x2="100%" y2="100%">
      <stop offset="0%" style="stop-color:#EF4444;stop-opacity:1" />
      <stop offset="100%" style="stop-color:#DC2626;stop-opacity:1" />
    </linearGradient>
    <linearGradient id="crossGradient" x1="0%" y1="0%" x2="100%" y2="100%">
      <stop offset="0%" style="stop-color:#F87171;stop-opacity:1" />
      <stop offset="100%" style="stop-color:#EF4444;stop-opacity:1" />
    </linearGradient>
  </defs>
  
  <!-- Background -->
  <rect width="240" height="200" fill="url(#healthBg)" rx="16"/>
  
  <!-- Ground -->
  <path d="M0 170 L240 170 L240 200 L0 200 Z" fill="#FEF2F2"/>
  
  <!-- Medical cross shadow -->
  <ellipse cx="120" cy="170" rx="40" ry="8" fill="#E5E7EB" opacity="0.3"/>
  
  <!-- Main medical cross -->
  <g transform="translate(95, 90)">
    <!-- Vertical bar -->
    <rect x="15" y="0" width="20" height="60" fill="url(#crossGradient)" rx="4"/>
    <!-- Horizontal bar -->
    <rect x="0" y="20" width="50" height="20" fill="url(#crossGradient)" rx="4"/>
  </g>
  
  <!-- Heart with pulse -->
  <g transform="translate(55, 105)">
    <!-- Heart shape -->
    <path d="M25 10 C25 5 20 0 15 0 C10 0 5 5 5 10 C5 20 25 30 25 30 C25 30 45 20 45 10 C45 5 40 0 35 0 C30 0 25 5 25 10 Z" fill="url(#heartGradient)"/>
    
    <!-- Heartbeat line -->
    <g opacity="0.8">
      <polyline points="8,15 15,15 18,8 22,22 25,15 32,15" stroke="#FEF2F2" stroke-width="2" fill="none" stroke-linecap="round" stroke-linejoin="round"/>
    </g>
  </g>
  
  <!-- Stethoscope -->
  <g transform="translate(145, 95)">
    <!-- Earpieces -->
    <path d="M15 5 Q10 0 5 5" stroke="#DC2626" stroke-width="3" fill="none" stroke-linecap="round"/>
    <!-- Tubes -->
    <path d="M5 5 L5 35" stroke="#DC2626" stroke-width="2.5" fill="none"/>
    <path d="M15 5 L15 35" stroke="#DC2626" stroke-width="2.5" fill="none"/>
    <!-- Y-junction -->
    <path d="M5 35 Q10 40 10 45 L10 55" stroke="#DC2626" stroke-width="2.5" fill="none"/>
    <path d="M15 35 Q10 40 10 45" stroke="#DC2626" stroke-width="2.5" fill="none"/>
    <!-- Diaphragm (chest piece) -->
    <circle cx="10" cy="65" r="8" fill="#DC2626"/>
    <circle cx="10" cy="65" r="6" fill="#F87171"/>
    <circle cx="10" cy="65" r="3" fill="#DC2626"/>
  </g>
  
  <!-- Pills -->
  <g transform="translate(50, 140)">
    <!-- Pill 1 -->
    <ellipse cx="0" cy="0" rx="8" ry="5" fill="#EF4444" transform="rotate(30)"/>
    <rect x="-8" y="-2" width="8" height="4" fill="#DC2626" transform="rotate(30)"/>
    
    <!-- Pill 2 -->
    <g transform="translate(25, 5)">
      <ellipse cx="0" cy="0" rx="8" ry="5" fill="#F87171" transform="rotate(-20)"/>
      <rect x="-8" y="-2" width="8" height="4" fill="#EF4444" transform="rotate(-20)"/>
    </g>
    
    <!-- Pill 3 -->
    <g transform="translate(50, 0)">
      <ellipse cx="0" cy="0" rx="8" ry="5" fill="#DC2626" transform="rotate(45)"/>
      <rect x="-8" y="-2" width="8" height="4" fill="#B91C1C" transform="rotate(45)"/>
    </g>
  </g>
  
  <!-- Medical bag -->
  <g transform="translate(160, 130)">
    <!-- Bag body -->
    <rect x="0" y="15" width="35" height="25" fill="#DC2626" rx="3"/>
    <rect x="2" y="17" width="31" height="21" fill="#EF4444" rx="2"/>
    
    <!-- Handle -->
    <path d="M10 15 Q10 8 17.5 8 Q25 8 25 15" stroke="#DC2626" stroke-width="3" fill="none" stroke-linecap="round"/>
    
    <!-- Cross on bag -->
    <rect x="14" y="22" width="3" height="10" fill="#FEF2F2" rx="1"/>
    <rect x="10" y="26" width="11" height="3" fill="#FEF2F2" rx="1"/>
    
    <!-- Clasp -->
    <rect x="14" y="14" width="7" height="3" fill="#B91C1C" rx="1"/>
  </g>
  
  <!-- Heartbeat line across middle -->
  <g opacity="0.3">
    <polyline points="20,80 35,80 40,70 45,90 50,80 70,80" stroke="#EF4444" stroke-width="2" fill="none" stroke-linecap="round" stroke-linejoin="round"/>
    <polyline points="170,120 185,120 190,110 195,130 200,120 220,120" stroke="#EF4444" stroke-width="2" fill="none" stroke-linecap="round" stroke-linejoin="round"/>
  </g>
  
  <!-- Floating particles (medical symbols) -->
  <g opacity="0.4">
    <text x="30" y="50" font-size="18" fill="#EF4444" font-family="Arial">+</text>
    <text x="200" y="60" font-size="16" fill="#F87171" font-family="Arial">♥</text>
    <text x="210" y="170" font-size="14" fill="#DC2626" font-family="Arial">+</text>
    <text x="25" y="165" font-size="12" fill="#EF4444" font-family="Arial">♥</text>
  </g>
  
  <!-- Insurance shield icon -->
  <g transform="translate(20, 30)">
    <circle cx="20" cy="20" r="18" fill="#EF4444" opacity="0.1"/>
    <path d="M20 5 L30 10 L30 25 Q30 35 20 40 Q10 35 10 25 L10 10 Z" fill="#EF4444"/>
    <path d="M16 22 L19 25 L24 18" stroke="#FFFFFF" stroke-width="2" fill="none" stroke-linecap="round" stroke-linejoin="round"/>
  </g>
</svg>
